 <svg width="44" height="28" viewBox="0 0 66 49" fill="none" xmlns="http://www.w3.org/2000/svg">
                    <path d="M24.4688 17.2695C24.4688 20.0898 23.6641 22.25 22.0547 23.75C20.4531 25.25 18.1367 26 15.1055 26H10.2539V8.86719H15.6328C18.4297 8.86719 20.6016 9.60547 22.1484 11.082C23.6953 12.5586 24.4688 14.6211 24.4688 17.2695ZM20.6953 17.3633C20.6953 13.6836 19.0703 11.8438 15.8203 11.8438H13.8867V23H15.4453C18.9453 23 20.6953 21.1211 20.6953 17.3633ZM16.6641 34.8223C15.9805 34.8223 15.4512 35.0801 15.0762 35.5957C14.7012 36.1074 14.5137 36.8223 14.5137 37.7402C14.5137 39.6504 15.2305 40.6055 16.6641 40.6055C17.2656 40.6055 17.9941 40.4551 18.8496 40.1543V41.6777C18.1465 41.9707 17.3613 42.1172 16.4941 42.1172C15.248 42.1172 14.2949 41.7402 13.6348 40.9863C12.9746 40.2285 12.6445 39.1426 12.6445 37.7285C12.6445 36.8379 12.8066 36.0586 13.1309 35.3906C13.4551 34.7188 13.9199 34.2051 14.5254 33.8496C15.1348 33.4902 15.8477 33.3105 16.6641 33.3105C17.4961 33.3105 18.332 33.5117 19.1719 33.9141L18.5859 35.3906C18.2656 35.2383 17.9434 35.1055 17.6191 34.9922C17.2949 34.8789 16.9766 34.8223 16.6641 34.8223ZM22.4941 37.2363H23.0801C23.6543 37.2363 24.0781 37.1406 24.3516 36.9492C24.625 36.7578 24.7617 36.457 24.7617 36.0469C24.7617 35.6406 24.6211 35.3516 24.3398 35.1797C24.0625 35.0078 23.6309 34.9219 23.0449 34.9219H22.4941V37.2363ZM22.4941 38.7129V42H20.6777V33.4336H23.1738C24.3379 33.4336 25.1992 33.6465 25.7578 34.0723C26.3164 34.4941 26.5957 35.1367 26.5957 36C26.5957 36.5039 26.457 36.9531 26.1797 37.3477C25.9023 37.7383 25.5098 38.0449 25.002 38.2676C26.291 40.1934 27.1309 41.4375 27.5215 42H25.5059L23.4609 38.7129H22.4941ZM33.5332 42H28.5996V33.4336H33.5332V34.9219H30.416V36.8027H33.3164V38.291H30.416V40.5H33.5332V42ZM42.4336 37.6348C42.4336 39.0449 42.0312 40.125 41.2266 40.875C40.4258 41.625 39.2676 42 37.752 42H35.3262V33.4336H38.0156C39.4141 33.4336 40.5 33.8027 41.2734 34.541C42.0469 35.2793 42.4336 36.3105 42.4336 37.6348ZM40.5469 37.6816C40.5469 35.8418 39.7344 34.9219 38.1094 34.9219H37.1426V40.5H37.9219C39.6719 40.5 40.5469 39.5605 40.5469 37.6816ZM44.209 42V33.4336H46.0254V42H44.209ZM51.4863 42H49.6699V34.9453H47.3438V33.4336H53.8125V34.9453H51.4863V42Z" fill="black"/>
                    <path d="M41.9648 8.86719V19.9531C41.9648 21.2188 41.6797 22.3281 41.1094 23.2812C40.5469 24.2344 39.7305 24.9648 38.6602 25.4727C37.5898 25.9805 36.3242 26.2344 34.8633 26.2344C32.6602 26.2344 30.9492 25.6719 29.7305 24.5469C28.5117 23.4141 27.9023 21.8672 27.9023 19.9062V8.86719H31.5234V19.3555C31.5234 20.6758 31.7891 21.6445 32.3203 22.2617C32.8516 22.8789 33.7305 23.1875 34.957 23.1875C36.1445 23.1875 37.0039 22.8789 37.5352 22.2617C38.0742 21.6367 38.3438 20.6602 38.3438 19.332V8.86719H41.9648Z" fill="#B71919"/>
                    <path d="M52.7695 26H49.1367V11.8906H44.4844V8.86719H57.4219V11.8906H52.7695V26Z" fill="#027C56"/>
</svg>