 <svg width="44" height="28" viewBox="0 0 42 42" fill="none" xmlns="http://www.w3.org/2000/svg">
                    <path d="M36.7818 15.9727C36.4636 15.0818 36.1455 14.1909 35.7 13.3636C34.8091 14 33.7909 14.3182 32.7091 14.3182C28.5727 14.3182 26.1545 9.60909 28.6364 6.23637C27.8091 5.79091 26.9182 5.40909 26.0273 5.15455C25.1364 10.8818 16.8636 10.8818 16.0364 5.15455C15.1455 5.47273 14.2545 5.79091 13.4273 6.23637C16.8636 10.8818 10.9455 16.7364 6.36364 13.3C5.91818 14.1273 5.53636 15.0182 5.28182 15.9091C11.0091 16.8 11.0091 25.0727 5.28182 25.9C5.6 26.7909 5.91818 27.6818 6.36364 28.5091C7.25455 27.8727 8.27273 27.5545 9.35455 27.5545C13.4909 27.5545 15.9091 32.2636 13.4273 35.6364C14.2545 36.0818 15.1455 36.4636 16.0364 36.7182C16.9273 30.9909 25.2 30.9909 26.0273 36.7182C26.9182 36.4 27.8091 36.0818 28.6364 35.6364C26.2182 32.3273 28.5727 27.5545 32.7091 27.5545C33.7909 27.5545 34.8091 27.8727 35.7 28.5091C36.1455 27.6818 36.5273 26.7909 36.7818 25.9C31.0545 25.1364 31.0545 16.8636 36.7818 15.9727ZM21 31.1818C15.4 31.1818 10.8182 26.6 10.8182 21C10.8182 15.4 15.4 10.8182 21 10.8182C26.6 10.8182 31.1818 15.4 31.1818 21C31.1818 26.6 26.6 31.1818 21 31.1818Z" fill="#DC2626"/>
                    <path d="M21 8.27272C23.1087 8.27272 24.8182 6.56327 24.8182 4.45454C24.8182 2.34582 23.1087 0.63636 21 0.63636C18.8913 0.63636 17.1818 2.34582 17.1818 4.45454C17.1818 6.56327 18.8913 8.27272 21 8.27272Z" fill="#1C1917"/>
                    <path d="M21 41.3636C23.1087 41.3636 24.8182 39.6542 24.8182 37.5455C24.8182 35.4367 23.1087 33.7273 21 33.7273C18.8913 33.7273 17.1818 35.4367 17.1818 37.5455C17.1818 39.6542 18.8913 41.3636 21 41.3636Z" fill="#DC2626"/>
                    <path d="M32.7091 13.1091C34.8178 13.1091 36.5273 11.3996 36.5273 9.29091C36.5273 7.18218 34.8178 5.47272 32.7091 5.47272C30.6004 5.47272 28.8909 7.18218 28.8909 9.29091C28.8909 11.3996 30.6004 13.1091 32.7091 13.1091Z" fill="#1C1917"/>
                    <path d="M9.29091 36.5273C11.3996 36.5273 13.1091 34.8178 13.1091 32.7091C13.1091 30.6004 11.3996 28.8909 9.29091 28.8909C7.18219 28.8909 5.47273 30.6004 5.47273 32.7091C5.47273 34.8178 7.18219 36.5273 9.29091 36.5273Z" fill="#DC2626"/>
                    <path d="M37.5455 24.8182C39.6542 24.8182 41.3636 23.1087 41.3636 21C41.3636 18.8913 39.6542 17.1818 37.5455 17.1818C35.4367 17.1818 33.7273 18.8913 33.7273 21C33.7273 23.1087 35.4367 24.8182 37.5455 24.8182Z" fill="#1C1917"/>
                    <path d="M4.45455 24.8182C6.56327 24.8182 8.27273 23.1087 8.27273 21C8.27273 18.8913 6.56327 17.1818 4.45455 17.1818C2.34582 17.1818 0.636364 18.8913 0.636364 21C0.636364 23.1087 2.34582 24.8182 4.45455 24.8182Z" fill="#DC2626"/>
                    <path d="M32.7091 36.5273C34.8178 36.5273 36.5273 34.8178 36.5273 32.7091C36.5273 30.6004 34.8178 28.8909 32.7091 28.8909C30.6004 28.8909 28.8909 30.6004 28.8909 32.7091C28.8909 34.8178 30.6004 36.5273 32.7091 36.5273Z" fill="#1C1917"/>
                    <path d="M9.29091 13.1091C11.3996 13.1091 13.1091 11.3996 13.1091 9.29091C13.1091 7.18218 11.3996 5.47272 9.29091 5.47272C7.18219 5.47272 5.47273 7.18218 5.47273 9.29091C5.47273 11.3996 7.18219 13.1091 9.29091 13.1091Z" fill="#DC2626"/>
</svg>