<svg width="44" height="28" viewBox="0 0 64 64" fill="none" xmlns="http://www.w3.org/2000/svg">
                    <path d="M33 27H31V35H33V27Z" fill="#0BE3A0"/>
                    <path d="M20.5357 10.1215L19.1215 11.5357L24.7783 17.1925L26.1925 15.7783L20.5357 10.1215Z" fill="#0BE3A0"/>
                    <path d="M42.9493 10.1215L37.2925 15.7783L38.7067 17.1925L44.3635 11.5357L42.9493 10.1215Z" fill="#0BE3A0"/>
                    <path d="M20 49H18V55H20V49Z" fill="#0BE3A0"/>
                    <path d="M20 36H18V42H20V36Z" fill="#0BE3A0"/>
                    <path d="M15 44H8V46H15V44Z" fill="#0BE3A0"/>
                    <path d="M46 36H44V42H46V36Z" fill="#0BE3A0"/>
                    <path d="M46 49H44V55H46V49Z" fill="#0BE3A0"/>
                    <path d="M56 45H49V47H56V45Z" fill="#0BE3A0"/>
                    <path d="M32 28C30.4178 28 28.871 27.5308 27.5554 26.6518C26.2398 25.7727 25.2145 24.5233 24.609 23.0615C24.0035 21.5997 23.845 19.9911 24.1537 18.4393C24.4624 16.8874 25.2243 15.462 26.3431 14.3431C27.462 13.2243 28.8874 12.4624 30.4393 12.1537C31.9911 11.845 33.5997 12.0035 35.0615 12.609C36.5233 13.2145 37.7727 14.2398 38.6518 15.5554C39.5308 16.871 40 18.4177 40 20C39.9976 22.121 39.154 24.1544 37.6542 25.6542C36.1544 27.154 34.121 27.9976 32 28ZM19 50C18.0111 50 17.0444 49.7068 16.2222 49.1573C15.3999 48.6079 14.759 47.827 14.3806 46.9134C14.0022 45.9998 13.9031 44.9945 14.0961 44.0245C14.289 43.0546 14.7652 42.1637 15.4645 41.4645C16.1637 40.7652 17.0546 40.289 18.0245 40.0961C18.9945 39.9031 19.9998 40.0022 20.9134 40.3806C21.8271 40.759 22.6079 41.3999 23.1574 42.2221C23.7068 43.0444 24 44.0111 24 45C23.9984 46.3256 23.4711 47.5964 22.5338 48.5338C21.5964 49.4711 20.3256 49.9984 19 50V50ZM19 62C18.2089 62 17.4355 61.7654 16.7777 61.3259C16.1199 60.8864 15.6072 60.2616 15.3045 59.5307C15.0017 58.7998 14.9225 57.9956 15.0769 57.2196C15.2312 56.4437 15.6122 55.731 16.1716 55.1716C16.731 54.6122 17.4437 54.2312 18.2196 54.0769C18.9956 53.9225 19.7998 54.0017 20.5307 54.3045C21.2616 54.6072 21.8864 55.1199 22.3259 55.7777C22.7654 56.4355 23 57.2089 23 58C23 59.0609 22.5786 60.0783 21.8284 60.8284C21.0783 61.5786 20.0609 62 19 62ZM32 45C30.8133 45 29.6533 44.6481 28.6666 43.9888C27.6799 43.3295 26.9108 42.3925 26.4567 41.2961C26.0026 40.1997 25.8838 38.9933 26.1153 37.8295C26.3468 36.6656 26.9182 35.5965 27.7574 34.7574C28.5965 33.9182 29.6656 33.3468 30.8295 33.1153C31.9933 32.8838 33.1997 33.0026 34.2961 33.4567C35.3925 33.9108 36.3295 34.6799 36.9888 35.6666C37.6481 36.6533 38 37.8133 38 39C37.9984 40.5908 37.3658 42.116 36.2409 43.2409C35.116 44.3658 33.5908 44.9984 32 45ZM17 14C15.6119 13.9998 14.2668 13.5184 13.1938 12.6376C12.1209 11.7569 11.3865 10.5314 11.1159 9.16989C10.8452 7.80841 11.055 6.3952 11.7095 5.17105C12.364 3.94691 13.4227 2.98757 14.7052 2.45649C15.9877 1.92541 17.4147 1.85545 18.743 2.25853C20.0713 2.66161 21.2188 3.51279 21.9898 4.66704C22.7609 5.8213 23.108 7.20721 22.9718 8.58863C22.8356 9.97006 22.2246 11.2615 21.243 12.243C20.687 12.8018 20.0257 13.2448 19.2974 13.5463C18.5691 13.8479 17.7883 14.0021 17 14V14ZM46.485 14C45.0969 13.9998 43.7518 13.5184 42.6788 12.6376C41.6059 11.7569 40.8715 10.5314 40.6009 9.16989C40.3302 7.80841 40.54 6.3952 41.1945 5.17105C41.849 3.94691 42.9077 2.98757 44.1902 2.45649C45.4727 1.92541 46.8997 1.85545 48.228 2.25853C49.5563 2.66161 50.7038 3.51279 51.4748 4.66704C52.2459 5.8213 52.593 7.20721 52.4568 8.58863C52.3206 9.97006 51.7096 11.2615 50.728 12.243C50.1721 12.8019 49.5108 13.2449 48.7825 13.5465C48.0542 13.8481 47.2733 14.0022 46.485 14V14ZM19 37C18.2089 37 17.4355 36.7654 16.7777 36.3259C16.1199 35.8864 15.6072 35.2616 15.3045 34.5307C15.0017 33.7998 14.9225 32.9956 15.0769 32.2196C15.2312 31.4437 15.6122 30.731 16.1716 30.1716C16.731 29.6122 17.4437 29.2312 18.2196 29.0769C18.9956 28.9225 19.7998 29.0017 20.5307 29.3045C21.2616 29.6072 21.8864 30.1199 22.3259 30.7777C22.7654 31.4355 23 32.2089 23 33C23 34.0609 22.5786 35.0783 21.8284 35.8284C21.0783 36.5786 20.0609 37 19 37ZM6 49C5.20888 49 4.43552 48.7654 3.77772 48.3259C3.11992 47.8864 2.60723 47.2616 2.30448 46.5307C2.00173 45.7998 1.92252 44.9956 2.07686 44.2196C2.2312 43.4437 2.61216 42.731 3.17157 42.1716C3.73098 41.6122 4.44372 41.2312 5.21964 41.0769C5.99556 40.9225 6.79983 41.0017 7.53074 41.3045C8.26164 41.6072 8.88635 42.1199 9.32588 42.7777C9.76541 43.4355 10 44.2089 10 45C10 46.0609 9.57857 47.0783 8.82843 47.8284C8.07828 48.5786 7.06087 49 6 49V49ZM45 51C44.0111 51 43.0444 50.7068 42.2221 50.1573C41.3999 49.6079 40.759 48.827 40.3806 47.9134C40.0022 46.9998 39.9031 45.9945 40.0961 45.0245C40.289 44.0546 40.7652 43.1637 41.4645 42.4645C42.1637 41.7652 43.0546 41.289 44.0245 41.0961C44.9945 40.9031 45.9998 41.0022 46.9134 41.3806C47.827 41.759 48.6079 42.3999 49.1573 43.2221C49.7068 44.0444 50 45.0111 50 46C49.9984 47.3256 49.4711 48.5964 48.5338 49.5338C47.5964 50.4711 46.3256 50.9984 45 51V51ZM45 37C44.2089 37 43.4355 36.7654 42.7777 36.3259C42.1199 35.8864 41.6072 35.2616 41.3045 34.5307C41.0017 33.7998 40.9225 32.9956 41.0769 32.2196C41.2312 31.4437 41.6122 30.731 42.1716 30.1716C42.731 29.6122 43.4437 29.2312 44.2196 29.0769C44.9956 28.9225 45.7998 29.0017 46.5307 29.3045C47.2616 29.6072 47.8864 30.1199 48.3259 30.7777C48.7654 31.4355 49 32.2089 49 33C49 34.0609 48.5786 35.0783 47.8284 35.8284C47.0783 36.5786 46.0609 37 45 37ZM45 62C44.2089 62 43.4355 61.7654 42.7777 61.3259C42.1199 60.8864 41.6072 60.2616 41.3045 59.5307C41.0017 58.7998 40.9225 57.9956 41.0769 57.2196C41.2312 56.4437 41.6122 55.731 42.1716 55.1716C42.731 54.6122 43.4437 54.2312 44.2196 54.0769C44.9956 53.9225 45.7998 54.0017 46.5307 54.3045C47.2616 54.6072 47.8864 55.1199 48.3259 55.7777C48.7654 56.4355 49 57.2089 49 58C49 59.0609 48.5786 60.0783 47.8284 60.8284C47.0783 61.5786 46.0609 62 45 62ZM58 50C57.2089 50 56.4355 49.7654 55.7777 49.3259C55.1199 48.8864 54.6072 48.2616 54.3045 47.5307C54.0017 46.7998 53.9225 45.9956 54.0769 45.2196C54.2312 44.4437 54.6122 43.731 55.1716 43.1716C55.731 42.6122 56.4437 42.2312 57.2196 42.0769C57.9956 41.9225 58.7998 42.0017 59.5307 42.3045C60.2616 42.6072 60.8864 43.1199 61.3259 43.7777C61.7654 44.4355 62 45.2089 62 46C62 47.0609 61.5786 48.0783 60.8284 48.8284C60.0783 49.5786 59.0609 50 58 50Z" fill="#027C56"/>
</svg>